<?xml version="1.0" encoding="UTF-8"?>
<svg width="160px" height="153px" viewBox="0 0 160 153" version="1.1" xmlns="http://www.w3.org/2000/svg" xmlns:xlink="http://www.w3.org/1999/xlink">
    <!-- Generator: sketchtool 54.1 (76490) - https://sketchapp.com -->
    <title>B208237D-658B-456B-B907-562CEDAC3C5B</title>
    <desc>Created with sketchtool.</desc>
    <g id="Epic-1_-02-Cart-+-Checkout-_" stroke="none" stroke-width="1" fill="none" fill-rule="evenodd" stroke-linecap="round" stroke-linejoin="round">
        <g id="D---Checkout-Confirmation---Logged-In" transform="translate(-773.000000, -198.000000)" stroke="#FFFFFF" stroke-width="3">
            <g id="Group-6" transform="translate(775.375000, 200.369565)">
                <polyline id="Stroke-1" points="104.625 78.6304348 70.5146543 117.630435 53.625 100.773588"></polyline>
                <polygon id="Stroke-2" points="-9.9475983e-14 148.26087 155.25 148.26087 155.25 47.173913 -9.9475983e-14 47.173913"></polygon>
                <path d="M108,30.326087 C108,13.5793478 94.392,1.42108547e-14 77.625,1.42108547e-14 C60.8445,1.42108547e-14 47.25,13.5793478 47.25,30.326087 L47.25,47.173913 L108,47.173913 L108,30.326087 Z" id="Stroke-4"></path>
                <polyline id="Stroke-5" points="121.4541 33.5905217 140.9076 33.6983478 155.25135 47.1766087"></polyline>
                <path d="M60.7041,33.5905217 L94.4541,33.5905217" id="Stroke-6"></path>
                <polyline id="Stroke-7" points="1.84741111e-13 47.173913 15.1875 33.6956522 33.70275 33.5878261"></polyline>
            </g>
        </g>
    </g>
</svg>