<?xml version="1.0" encoding="UTF-8"?>
<svg width="14px" height="13px" viewBox="0 0 14 13" version="1.1" xmlns="http://www.w3.org/2000/svg" xmlns:xlink="http://www.w3.org/1999/xlink">
  <g id="Symbols" stroke="none" stroke-width="1" fill="none" fill-rule="evenodd">
    <g id="FOOTER---desktop" transform="translate(-1209.000000, -504.000000)" fill="#FFFFFF" fill-rule="nonzero">
      <g id="Social-Icons" transform="translate(1121.000000, 496.000000)">
        <g id="LinkedIn" transform="translate(80.000000, 0.000000)">
          <path d="M11.3158537,20.454878 L8.75487805,20.454878 L8.75487805,12.2304878 L11.3158537,12.2304878 L11.3158537,20.454878 Z M9.96585366,11.202439 L9.94756098,11.202439 C9.55112074,11.2320013 9.16032182,11.0948299 8.86932818,10.8239766 C8.57833454,10.5531234 8.41353346,10.1731492 8.41463415,9.77560976 C8.41463415,8.96341463 9.03292683,8.34878049 9.98414634,8.34878049 C10.3824734,8.31718039 10.7759239,8.4531931 11.0696953,8.72404619 C11.3634668,8.99489928 11.5309201,9.37603194 11.5317073,9.77560976 C11.5317073,10.5731707 10.9280488,11.202439 9.96585366,11.202439 Z M21.5853659,20.454878 L18.6585366,20.454878 L18.6585366,16.2 C18.6585366,15.102439 18.204878,14.3268293 17.195122,14.3268293 C16.5630636,14.3267773 16.0023963,14.7325234 15.804878,15.3329268 C15.7436935,15.5504749 15.7226183,15.7773432 15.7426829,16.002439 L15.7426829,20.454878 L12.8817073,20.454878 C12.8817073,20.454878 12.9182927,12.9182927 12.8817073,12.2341463 L15.7646341,12.2341463 L15.7646341,13.5365854 C15.9365854,12.9731707 16.8621951,12.1682927 18.3256098,12.1682927 C20.154878,12.1682927 21.5853659,13.35 21.5853659,15.8963415 L21.5853659,20.454878 Z" id="Shape"></path>
        </g>
      </g>
    </g>
  </g>
</svg>
