<?xml version="1.0" encoding="UTF-8"?>
<svg width="8px" height="14px" viewBox="0 0 8 14" version="1.1" xmlns="http://www.w3.org/2000/svg" xmlns:xlink="http://www.w3.org/1999/xlink">
  <g id="Symbols" stroke="none" stroke-width="1" fill="none" fill-rule="evenodd">
    <g id="FOOTER---desktop" transform="translate(-1132.000000, -504.000000)" fill="#FFFFFF" fill-rule="nonzero">
      <g id="Social-Icons" transform="translate(1121.000000, 496.000000)">
        <g id="Facebook">
          <path d="M11.8243902,12.7682927 L13.1707317,12.7682927 L13.1707317,11.447561 C13.1707317,10.8621951 13.1707317,9.96219512 13.6097561,9.40609756 C14.0996288,8.73283793 14.9009892,8.35840917 15.7317073,8.41463415 C16.5526735,8.37869983 17.374534,8.46125553 18.1719512,8.6597561 L17.8317073,10.6756098 C17.4738639,10.5765189 17.1053142,10.5212364 16.7341463,10.5109756 C16.2036585,10.5109756 15.7317073,10.7012195 15.7317073,11.2426829 L15.7317073,12.7682927 L17.904878,12.7682927 L17.754878,14.7402439 L15.7317073,14.7402439 L15.7317073,21.5853659 L13.1707317,21.5853659 L13.1707317,14.7402439 L11.8243902,14.7402439 L11.8243902,12.7682927 Z" id="Shape"></path>
        </g>
      </g>
    </g>
  </g>
</svg>
