<?xml version="1.0" encoding="UTF-8"?>
<svg width="14px" height="16px" viewBox="0 0 14 16" version="1.1" xmlns="http://www.w3.org/2000/svg" xmlns:xlink="http://www.w3.org/1999/xlink">
  <g id="Symbols" stroke="none" stroke-width="1" fill="none" fill-rule="evenodd">
    <g id="FOOTER---desktop" transform="translate(-1169.000000, -503.000000)" fill="#FFFFFF" fill-rule="nonzero">
      <g id="Social-Icons" transform="translate(1121.000000, 496.000000)">
        <g id="Instagram" transform="translate(40.000000, 0.000000)">
          <g id="Group-2" transform="translate(8.000000, 7.000000)">
            <path d="M9.8902439,15.1707317 L4.1097561,15.1707317 C1.84146341,15.1707317 0.012195122,13.3414634 0.012195122,11.0731707 L0.012195122,4.92682927 C0.012195122,2.65853659 1.84146341,0.829268293 4.1097561,0.829268293 L9.8902439,0.829268293 C12.1585366,0.829268293 13.9878049,2.65853659 13.9878049,4.92682927 L13.9878049,11.0731707 C13.9878049,13.3414634 12.1585366,15.1707317 9.8902439,15.1707317 Z M4.1097561,1.8902439 C2.42682927,1.8902439 1.07317073,3.24390244 1.07317073,4.92682927 L1.07317073,11.0731707 C1.07317073,12.7560976 2.42682927,14.1097561 4.1097561,14.1097561 L9.8902439,14.1097561 C11.5731707,14.1097561 12.9268293,12.7560976 12.9268293,11.0731707 L12.9268293,4.92682927 C12.9268293,3.24390244 11.5731707,1.8902439 9.8902439,1.8902439 L4.1097561,1.8902439 Z" id="Shape"></path>
            <path d="M7,11.804878 C4.91463415,11.804878 3.19512195,10.0853659 3.19512195,8 C3.19512195,6.97560976 3.63414634,5.95121951 4.36585366,5.2195122 C5.09756098,4.52439024 6.01219512,4.15853659 7.03658537,4.15853659 C9.37804878,4.23170732 10.8780488,5.73170732 10.8414634,8 C10.7682927,10.1219512 9.08536585,11.804878 7,11.804878 Z M6.92682927,5.43902439 C6.30487805,5.43902439 5.7195122,5.69512195 5.2804878,6.13414634 C4.76829268,6.6097561 4.51219512,7.30487805 4.51219512,7.96341463 C4.51219512,9.35365854 5.64634146,10.4878049 7.03658537,10.4878049 C8.42682927,10.4878049 9.52439024,9.35365854 9.56097561,7.96341463 C9.59756098,6.42682927 8.64634146,5.51219512 7,5.43902439 C6.96341463,5.43902439 6.92682927,5.43902439 6.92682927,5.43902439 Z" id="Shape"></path>
            <circle id="Oval" cx="10.9146341" cy="4.04878049" r="1"></circle>
          </g>
        </g>
      </g>
    </g>
  </g>
</svg>
