<?xml version="1.0" encoding="UTF-8"?>
<svg width="18px" height="16px" viewBox="0 0 18 16" version="1.1" xmlns="http://www.w3.org/2000/svg" xmlns:xlink="http://www.w3.org/1999/xlink">
  <g id="Symbols" stroke="none" stroke-width="1" fill="none" fill-rule="evenodd">
    <g id="FOOTER---desktop" transform="translate(-1287.000000, -503.000000)" fill="#FFFFFF" fill-rule="nonzero">
      <g id="Social-Icons" transform="translate(1121.000000, 496.000000)">
        <g id="Wechat" transform="translate(160.000000, 0.000000)">
          <g id="Group" transform="translate(6.000000, 7.000000)">
            <path d="M12.3004446,4.96622229 C10.6560001,5.06488895 9.2417779,5.55822229 8.09066677,6.67644453 C6.93955564,7.79466677 6.41333342,9.17600012 6.54488897,10.8862224 C5.92000008,10.8204446 5.32800007,10.7217779 4.73600006,10.6560001 C4.53866673,10.6231112 4.3084445,10.6560001 4.11111116,10.7546668 C3.55200005,11.0835557 2.99288893,11.4453335 2.36800003,11.8400002 C2.49955559,11.3137779 2.56533337,10.8533335 2.69688892,10.392889 C2.79555559,10.0640001 2.7626667,9.86666679 2.43377781,9.66933346 C0.49333334,8.28800011 -0.361777782,6.21600008 0.263111115,4.11111116 C0.822222233,2.13777781 2.23644447,0.95377779 4.14400005,0.328888893 C6.74222231,-0.526222229 9.66933346,0.361777782 11.2480001,2.40088892 C11.8400002,3.15733337 12.2017779,3.97955561 12.3004446,4.96622229 Z M4.80177784,4.3084445 C4.80177784,3.91377783 4.47288895,3.58488894 4.07822227,3.55200005 C3.6835556,3.55200005 3.32177782,3.84800005 3.32177782,4.24266672 C3.32177782,4.63733339 3.61777782,4.96622229 4.04533339,4.99911118 C4.44000006,5.03200006 4.80177784,4.70311117 4.80177784,4.3084445 Z M8.71555567,3.55200005 C8.320889,3.55200005 7.95911121,3.91377783 7.9920001,4.3084445 C7.9920001,4.70311117 8.320889,5.03200006 8.74844456,5.03200006 C9.17600012,5.03200006 9.47200012,4.70311117 9.47200012,4.3084445 C9.43911123,3.88088894 9.11022234,3.55200005 8.71555567,3.55200005 Z" id="Shape"></path>
            <path d="M15.9511113,15.1288891 C15.4248891,14.8986669 14.9644446,14.569778 14.4711113,14.5040002 C13.977778,14.4382224 13.4515557,14.7342224 12.9253335,14.8000002 C11.3137779,14.9644446 9.89955568,14.5040002 8.71555567,13.4186668 C6.47911119,11.3466668 6.7751112,8.15644455 9.37333345,6.44622231 C11.6755557,4.9333334 15.0631113,5.42666674 16.7075558,7.53155565 C18.121778,9.37333345 17.9573336,11.8071113 16.2142224,13.3200002 C15.7208891,13.7804446 15.5235558,14.1422224 15.8524446,14.7342224 C15.9182224,14.865778 15.9182224,14.9973335 15.9511113,15.1288891 Z M10.096889,9.43911123 C10.4257779,9.43911123 10.688889,9.17600012 10.7217779,8.84711123 C10.7217779,8.51822233 10.4586668,8.22222233 10.1297779,8.22222233 C9.80088902,8.22222233 9.50488901,8.51822233 9.50488901,8.84711123 C9.47200012,9.17600012 9.76800013,9.43911123 10.096889,9.43911123 Z M13.8791113,8.22222233 C13.5502224,8.22222233 13.2871113,8.48533344 13.2871113,8.81422234 C13.2871113,9.14311123 13.5502224,9.43911123 13.8791113,9.43911123 C14.2080002,9.43911123 14.4711113,9.17600012 14.4711113,8.84711123 C14.4711113,8.51822233 14.2080002,8.22222233 13.8791113,8.22222233 Z" id="Shape"></path>
          </g>
        </g>
      </g>
    </g>
  </g>
</svg>
