<?xml version="1.0" encoding="UTF-8"?>
<svg width="14px" height="12px" viewBox="0 0 14 12" version="1.1" xmlns="http://www.w3.org/2000/svg" xmlns:xlink="http://www.w3.org/1999/xlink">
  <g id="Symbols" stroke="none" stroke-width="1" fill="none" fill-rule="evenodd">
    <g id="FOOTER---desktop" transform="translate(-1249.000000, -506.000000)" fill="#FFFFFF" fill-rule="nonzero">
      <g id="Social-Icons" transform="translate(1121.000000, 496.000000)">
        <g id="Twitter" transform="translate(120.000000, 0.000000)">
          <path d="M21.5853659,11.6268293 C21.092301,11.8447212 20.5694622,11.9877621 20.0341463,12.0512195 C20.5975983,11.7143133 21.0189998,11.1836596 21.2195122,10.5585366 C20.6892452,10.8733996 20.1088676,11.0949083 19.5036585,11.2134146 C18.7445833,10.4073373 17.5707386,10.1455609 16.5410976,10.5527407 C15.5114566,10.9599206 14.8341511,11.9537494 14.8317073,13.0609756 C14.8309282,13.267858 14.8542562,13.4741268 14.9012195,13.6756098 C12.7282936,13.5667111 10.7034188,12.5416432 9.32926829,10.854878 C8.61384699,12.0901509 8.98046104,13.6686725 10.1670732,14.4621951 C9.73761577,14.4488448 9.31750302,14.3334705 8.94146341,14.1256098 L8.94146341,14.1585366 C8.94221956,15.4452211 9.84965151,16.5531144 11.1109756,16.8073171 C10.8786429,16.8715158 10.6385979,16.9035218 10.397561,16.902439 C10.2232541,16.9035535 10.0492558,16.8876241 9.87804878,16.854878 C10.23056,17.9566768 11.2457992,18.7114851 12.402439,18.7317073 C11.2715127,19.6135837 9.83929589,20.0156556 8.41463415,19.8512195 C9.65001891,20.6450029 11.0876743,21.0666474 12.5560976,21.0658537 C17.5280488,21.0658537 20.2390244,16.95 20.2390244,13.3829268 C20.2390244,13.2658537 20.2390244,13.1487805 20.2390244,13.0170732 C20.7666194,12.6370751 21.2224872,12.1663421 21.5853659,11.6268293" id="Shape"></path>
        </g>
      </g>
    </g>
  </g>
</svg>
